<mxfile host="65bd71144e">
    <diagram id="dQ-gaCkEvzOyShW2wYSW" name="Page-1">
        <mxGraphModel dx="2973" dy="2153" grid="1" gridSize="10" guides="1" tooltips="1" connect="1" arrows="1" fold="1" page="1" pageScale="1" pageWidth="850" pageHeight="1100" math="0" shadow="0">
            <root>
                <mxCell id="0"/>
                <mxCell id="1" parent="0"/>
                <mxCell id="3" value="&lt;font style=&quot;font-size: 24px;&quot;&gt;For Dogs&lt;/font&gt;" style="ellipse;whiteSpace=wrap;html=1;" parent="1" vertex="1">
                    <mxGeometry x="25" y="290" width="130" height="130" as="geometry"/>
                </mxCell>
                <mxCell id="7" value="Toys" style="ellipse;whiteSpace=wrap;html=1;" parent="1" vertex="1">
                    <mxGeometry x="-50" y="460" width="80" height="80" as="geometry"/>
                </mxCell>
                <mxCell id="73" style="edgeStyle=elbowEdgeStyle;html=1;exitX=0;exitY=0.5;exitDx=0;exitDy=0;fontSize=24;entryX=0;entryY=0.5;entryDx=0;entryDy=0;" edge="1" parent="1" source="8" target="58">
                    <mxGeometry relative="1" as="geometry">
                        <mxPoint x="150" y="860" as="targetPoint"/>
                        <Array as="points">
                            <mxPoint x="160" y="725"/>
                        </Array>
                    </mxGeometry>
                </mxCell>
                <mxCell id="75" style="edgeStyle=elbowEdgeStyle;html=1;exitX=0;exitY=0.5;exitDx=0;exitDy=0;entryX=0;entryY=0.5;entryDx=0;entryDy=0;fontSize=24;" edge="1" parent="1" source="8" target="49">
                    <mxGeometry relative="1" as="geometry">
                        <Array as="points">
                            <mxPoint x="160" y="560"/>
                        </Array>
                    </mxGeometry>
                </mxCell>
                <mxCell id="76" style="edgeStyle=elbowEdgeStyle;html=1;exitX=0;exitY=0.5;exitDx=0;exitDy=0;entryX=0;entryY=0.5;entryDx=0;entryDy=0;fontSize=24;" edge="1" parent="1" source="8" target="50">
                    <mxGeometry relative="1" as="geometry">
                        <Array as="points">
                            <mxPoint x="160" y="550"/>
                        </Array>
                    </mxGeometry>
                </mxCell>
                <mxCell id="77" style="edgeStyle=elbowEdgeStyle;html=1;exitX=0;exitY=0.5;exitDx=0;exitDy=0;entryX=0;entryY=0.5;entryDx=0;entryDy=0;fontSize=24;" edge="1" parent="1" source="8" target="48">
                    <mxGeometry relative="1" as="geometry">
                        <Array as="points">
                            <mxPoint x="160" y="640"/>
                        </Array>
                    </mxGeometry>
                </mxCell>
                <mxCell id="8" value="Clothes and accessories" style="ellipse;whiteSpace=wrap;html=1;" parent="1" vertex="1">
                    <mxGeometry x="175" y="460" width="80" height="80" as="geometry"/>
                </mxCell>
                <mxCell id="10" value="Care and Hygiene" style="ellipse;whiteSpace=wrap;html=1;" parent="1" vertex="1">
                    <mxGeometry x="545" y="460" width="80" height="80" as="geometry"/>
                </mxCell>
                <mxCell id="25" value="collars" style="ellipse;whiteSpace=wrap;html=1;" parent="1" vertex="1">
                    <mxGeometry x="265" y="460" width="80" height="80" as="geometry"/>
                </mxCell>
                <mxCell id="26" value="leashes" style="ellipse;whiteSpace=wrap;html=1;" parent="1" vertex="1">
                    <mxGeometry x="355" y="460" width="80" height="80" as="geometry"/>
                </mxCell>
                <mxCell id="27" value="harnesses" style="ellipse;whiteSpace=wrap;html=1;" parent="1" vertex="1">
                    <mxGeometry x="445" y="460" width="80" height="80" as="geometry"/>
                </mxCell>
                <mxCell id="31" value="Dishes and bowls" style="ellipse;whiteSpace=wrap;html=1;" parent="1" vertex="1">
                    <mxGeometry x="845" y="460" width="80" height="80" as="geometry"/>
                </mxCell>
                <mxCell id="48" value="collars" style="ellipse;whiteSpace=wrap;html=1;" vertex="1" parent="1">
                    <mxGeometry x="175" y="800" width="80" height="80" as="geometry"/>
                </mxCell>
                <mxCell id="49" value="leashes" style="ellipse;whiteSpace=wrap;html=1;" vertex="1" parent="1">
                    <mxGeometry x="175" y="580" width="80" height="80" as="geometry"/>
                </mxCell>
                <mxCell id="50" value="harnesses" style="ellipse;whiteSpace=wrap;html=1;" vertex="1" parent="1">
                    <mxGeometry x="175" y="690" width="80" height="80" as="geometry"/>
                </mxCell>
                <mxCell id="55" value="Dog Food" style="ellipse;whiteSpace=wrap;html=1;" vertex="1" parent="1">
                    <mxGeometry x="-256" y="460" width="80" height="80" as="geometry"/>
                </mxCell>
                <mxCell id="56" value="Vitamins and sweets" style="ellipse;whiteSpace=wrap;html=1;" vertex="1" parent="1">
                    <mxGeometry x="-150" y="460" width="80" height="80" as="geometry"/>
                </mxCell>
                <mxCell id="57" value="Carriers and sleeping places&amp;nbsp;" style="ellipse;whiteSpace=wrap;html=1;" vertex="1" parent="1">
                    <mxGeometry x="745" y="460" width="80" height="80" as="geometry"/>
                </mxCell>
                <mxCell id="58" value="Muzzels" style="ellipse;whiteSpace=wrap;html=1;" vertex="1" parent="1">
                    <mxGeometry x="175" y="910" width="80" height="80" as="geometry"/>
                </mxCell>
                <mxCell id="61" value="Vet Meds" style="ellipse;whiteSpace=wrap;html=1;" vertex="1" parent="1">
                    <mxGeometry x="60" y="460" width="80" height="80" as="geometry"/>
                </mxCell>
                <mxCell id="63" value="Grooming Tools" style="ellipse;whiteSpace=wrap;html=1;" vertex="1" parent="1">
                    <mxGeometry x="645" y="460" width="80" height="80" as="geometry"/>
                </mxCell>
                <mxCell id="78" value="&lt;span style=&quot;font-size: 24px;&quot;&gt;For Cats&lt;/span&gt;" style="ellipse;whiteSpace=wrap;html=1;" vertex="1" parent="1">
                    <mxGeometry x="1491" y="290" width="130" height="130" as="geometry"/>
                </mxCell>
                <mxCell id="79" value="Toys" style="ellipse;whiteSpace=wrap;html=1;" vertex="1" parent="1">
                    <mxGeometry x="1416" y="460" width="80" height="80" as="geometry"/>
                </mxCell>
                <mxCell id="80" style="edgeStyle=elbowEdgeStyle;html=1;exitX=0;exitY=0.5;exitDx=0;exitDy=0;fontSize=24;entryX=0;entryY=0.5;entryDx=0;entryDy=0;" edge="1" source="84" target="96" parent="1">
                    <mxGeometry relative="1" as="geometry">
                        <mxPoint x="1616" y="860" as="targetPoint"/>
                        <Array as="points">
                            <mxPoint x="1626" y="725"/>
                        </Array>
                    </mxGeometry>
                </mxCell>
                <mxCell id="81" style="edgeStyle=elbowEdgeStyle;html=1;exitX=0;exitY=0.5;exitDx=0;exitDy=0;entryX=0;entryY=0.5;entryDx=0;entryDy=0;fontSize=24;" edge="1" source="84" target="91" parent="1">
                    <mxGeometry relative="1" as="geometry">
                        <Array as="points">
                            <mxPoint x="1626" y="560"/>
                        </Array>
                    </mxGeometry>
                </mxCell>
                <mxCell id="82" style="edgeStyle=elbowEdgeStyle;html=1;exitX=0;exitY=0.5;exitDx=0;exitDy=0;entryX=0;entryY=0.5;entryDx=0;entryDy=0;fontSize=24;" edge="1" source="84" target="92" parent="1">
                    <mxGeometry relative="1" as="geometry">
                        <Array as="points">
                            <mxPoint x="1626" y="550"/>
                        </Array>
                    </mxGeometry>
                </mxCell>
                <mxCell id="83" style="edgeStyle=elbowEdgeStyle;html=1;exitX=0;exitY=0.5;exitDx=0;exitDy=0;entryX=0;entryY=0.5;entryDx=0;entryDy=0;fontSize=24;" edge="1" source="84" target="90" parent="1">
                    <mxGeometry relative="1" as="geometry">
                        <Array as="points">
                            <mxPoint x="1626" y="640"/>
                        </Array>
                    </mxGeometry>
                </mxCell>
                <mxCell id="84" value="Clothes and accessories" style="ellipse;whiteSpace=wrap;html=1;" vertex="1" parent="1">
                    <mxGeometry x="1641" y="460" width="80" height="80" as="geometry"/>
                </mxCell>
                <mxCell id="85" value="Care and Hygiene" style="ellipse;whiteSpace=wrap;html=1;" vertex="1" parent="1">
                    <mxGeometry x="1760" y="460" width="80" height="80" as="geometry"/>
                </mxCell>
                <mxCell id="89" value="Dishes and bowls" style="ellipse;whiteSpace=wrap;html=1;" vertex="1" parent="1">
                    <mxGeometry x="2280" y="460" width="80" height="80" as="geometry"/>
                </mxCell>
                <mxCell id="90" value="todo" style="ellipse;whiteSpace=wrap;html=1;" vertex="1" parent="1">
                    <mxGeometry x="1641" y="800" width="80" height="80" as="geometry"/>
                </mxCell>
                <mxCell id="91" value="todo" style="ellipse;whiteSpace=wrap;html=1;" vertex="1" parent="1">
                    <mxGeometry x="1641" y="580" width="80" height="80" as="geometry"/>
                </mxCell>
                <mxCell id="92" value="todo" style="ellipse;whiteSpace=wrap;html=1;" vertex="1" parent="1">
                    <mxGeometry x="1641" y="690" width="80" height="80" as="geometry"/>
                </mxCell>
                <mxCell id="93" value="Cat Food" style="ellipse;whiteSpace=wrap;html=1;" vertex="1" parent="1">
                    <mxGeometry x="1210" y="460" width="80" height="80" as="geometry"/>
                </mxCell>
                <mxCell id="94" value="Vitamins and sweets" style="ellipse;whiteSpace=wrap;html=1;" vertex="1" parent="1">
                    <mxGeometry x="1316" y="460" width="80" height="80" as="geometry"/>
                </mxCell>
                <mxCell id="95" value="Carriers and sleeping places&amp;nbsp;" style="ellipse;whiteSpace=wrap;html=1;" vertex="1" parent="1">
                    <mxGeometry x="2180" y="460" width="80" height="80" as="geometry"/>
                </mxCell>
                <mxCell id="96" value="todo" style="ellipse;whiteSpace=wrap;html=1;" vertex="1" parent="1">
                    <mxGeometry x="1641" y="910" width="80" height="80" as="geometry"/>
                </mxCell>
                <mxCell id="97" value="Vet Meds" style="ellipse;whiteSpace=wrap;html=1;" vertex="1" parent="1">
                    <mxGeometry x="1526" y="460" width="80" height="80" as="geometry"/>
                </mxCell>
                <mxCell id="98" value="Grooming Tools" style="ellipse;whiteSpace=wrap;html=1;" vertex="1" parent="1">
                    <mxGeometry x="1870" y="460" width="80" height="80" as="geometry"/>
                </mxCell>
                <mxCell id="99" value="Toilets" style="ellipse;whiteSpace=wrap;html=1;" vertex="1" parent="1">
                    <mxGeometry x="1980" y="460" width="80" height="80" as="geometry"/>
                </mxCell>
                <mxCell id="100" value="Toilet Filters" style="ellipse;whiteSpace=wrap;html=1;" vertex="1" parent="1">
                    <mxGeometry x="2080" y="460" width="80" height="80" as="geometry"/>
                </mxCell>
                <mxCell id="101" value="&lt;span style=&quot;font-size: 24px;&quot;&gt;For Rodents&lt;/span&gt;" style="ellipse;whiteSpace=wrap;html=1;" vertex="1" parent="1">
                    <mxGeometry x="2862" y="290" width="130" height="130" as="geometry"/>
                </mxCell>
                <mxCell id="102" value="Toys&amp;nbsp;" style="ellipse;whiteSpace=wrap;html=1;" vertex="1" parent="1">
                    <mxGeometry x="2681" y="460" width="80" height="80" as="geometry"/>
                </mxCell>
                <mxCell id="103" style="edgeStyle=elbowEdgeStyle;html=1;exitX=0;exitY=0.5;exitDx=0;exitDy=0;fontSize=24;entryX=0;entryY=0.5;entryDx=0;entryDy=0;" edge="1" target="116" parent="1">
                    <mxGeometry relative="1" as="geometry">
                        <mxPoint x="2526" y="1350" as="targetPoint"/>
                        <mxPoint x="2551.0000000000005" y="990" as="sourcePoint"/>
                        <Array as="points">
                            <mxPoint x="2536" y="1215"/>
                        </Array>
                    </mxGeometry>
                </mxCell>
                <mxCell id="104" style="edgeStyle=elbowEdgeStyle;html=1;exitX=0;exitY=0.5;exitDx=0;exitDy=0;entryX=0;entryY=0.5;entryDx=0;entryDy=0;fontSize=24;" edge="1" target="111" parent="1">
                    <mxGeometry relative="1" as="geometry">
                        <mxPoint x="2551.0000000000005" y="990" as="sourcePoint"/>
                        <Array as="points">
                            <mxPoint x="2536" y="1050"/>
                        </Array>
                    </mxGeometry>
                </mxCell>
                <mxCell id="105" style="edgeStyle=elbowEdgeStyle;html=1;exitX=0;exitY=0.5;exitDx=0;exitDy=0;entryX=0;entryY=0.5;entryDx=0;entryDy=0;fontSize=24;" edge="1" target="112" parent="1">
                    <mxGeometry relative="1" as="geometry">
                        <mxPoint x="2551.0000000000005" y="990" as="sourcePoint"/>
                        <Array as="points">
                            <mxPoint x="2536" y="1040"/>
                        </Array>
                    </mxGeometry>
                </mxCell>
                <mxCell id="106" style="edgeStyle=elbowEdgeStyle;html=1;exitX=0;exitY=0.5;exitDx=0;exitDy=0;entryX=0;entryY=0.5;entryDx=0;entryDy=0;fontSize=24;" edge="1" target="110" parent="1">
                    <mxGeometry relative="1" as="geometry">
                        <mxPoint x="2551.0000000000005" y="990" as="sourcePoint"/>
                        <Array as="points">
                            <mxPoint x="2536" y="1130"/>
                        </Array>
                    </mxGeometry>
                </mxCell>
                <mxCell id="108" value="Care and Hygiene" style="ellipse;whiteSpace=wrap;html=1;" vertex="1" parent="1">
                    <mxGeometry x="3011" y="460" width="80" height="80" as="geometry"/>
                </mxCell>
                <mxCell id="113" value="Food&amp;amp;&lt;br&gt;Treats" style="ellipse;whiteSpace=wrap;html=1;" vertex="1" parent="1">
                    <mxGeometry x="2581" y="460" width="80" height="80" as="geometry"/>
                </mxCell>
                <mxCell id="114" value="Vitamins" style="ellipse;whiteSpace=wrap;html=1;" vertex="1" parent="1">
                    <mxGeometry x="2791" y="460" width="80" height="80" as="geometry"/>
                </mxCell>
                <mxCell id="117" value="Vet Meds" style="ellipse;whiteSpace=wrap;html=1;" vertex="1" parent="1">
                    <mxGeometry x="2897" y="460" width="80" height="80" as="geometry"/>
                </mxCell>
                <mxCell id="118" value="Grooming Tools" style="ellipse;whiteSpace=wrap;html=1;" vertex="1" parent="1">
                    <mxGeometry x="3121" y="460" width="80" height="80" as="geometry"/>
                </mxCell>
                <mxCell id="121" value="Accesories For Cages" style="ellipse;whiteSpace=wrap;html=1;" vertex="1" parent="1">
                    <mxGeometry x="3331" y="460" width="80" height="80" as="geometry"/>
                </mxCell>
                <mxCell id="122" value="Nesting Material" style="ellipse;whiteSpace=wrap;html=1;" vertex="1" parent="1">
                    <mxGeometry x="3431" y="460" width="80" height="80" as="geometry"/>
                </mxCell>
                <mxCell id="123" value="Cages" style="ellipse;whiteSpace=wrap;html=1;" vertex="1" parent="1">
                    <mxGeometry x="3231" y="460" width="80" height="80" as="geometry"/>
                </mxCell>
                <mxCell id="124" value="&lt;span style=&quot;font-size: 24px;&quot;&gt;For Birds&lt;/span&gt;" style="ellipse;whiteSpace=wrap;html=1;" vertex="1" parent="1">
                    <mxGeometry x="3991" y="290" width="130" height="130" as="geometry"/>
                </mxCell>
                <mxCell id="125" value="Toys&amp;nbsp;" style="ellipse;whiteSpace=wrap;html=1;" vertex="1" parent="1">
                    <mxGeometry x="3820" y="460" width="80" height="80" as="geometry"/>
                </mxCell>
                <mxCell id="126" value="Care&amp;amp;&lt;br&gt;Hygiene" style="ellipse;whiteSpace=wrap;html=1;" vertex="1" parent="1">
                    <mxGeometry x="4140" y="460" width="80" height="80" as="geometry"/>
                </mxCell>
                <mxCell id="127" value="Food&amp;amp;&lt;br&gt;Treats" style="ellipse;whiteSpace=wrap;html=1;" vertex="1" parent="1">
                    <mxGeometry x="3710" y="460" width="80" height="80" as="geometry"/>
                </mxCell>
                <mxCell id="128" value="Vitamins" style="ellipse;whiteSpace=wrap;html=1;" vertex="1" parent="1">
                    <mxGeometry x="3924" y="460" width="80" height="80" as="geometry"/>
                </mxCell>
                <mxCell id="129" value="Vet Meds" style="ellipse;whiteSpace=wrap;html=1;" vertex="1" parent="1">
                    <mxGeometry x="4030" y="460" width="80" height="80" as="geometry"/>
                </mxCell>
                <mxCell id="130" value="Grooming Tools" style="ellipse;whiteSpace=wrap;html=1;" vertex="1" parent="1">
                    <mxGeometry x="4250" y="460" width="80" height="80" as="geometry"/>
                </mxCell>
                <mxCell id="131" value="Accesories For Cages" style="ellipse;whiteSpace=wrap;html=1;" vertex="1" parent="1">
                    <mxGeometry x="4460" y="460" width="80" height="80" as="geometry"/>
                </mxCell>
                <mxCell id="132" value="Nesting Material" style="ellipse;whiteSpace=wrap;html=1;" vertex="1" parent="1">
                    <mxGeometry x="4560" y="460" width="80" height="80" as="geometry"/>
                </mxCell>
                <mxCell id="133" value="Cages" style="ellipse;whiteSpace=wrap;html=1;" vertex="1" parent="1">
                    <mxGeometry x="4360" y="460" width="80" height="80" as="geometry"/>
                </mxCell>
                <mxCell id="137" value="&lt;span style=&quot;font-size: 24px;&quot;&gt;Seeds&lt;/span&gt;" style="ellipse;whiteSpace=wrap;html=1;" vertex="1" parent="1">
                    <mxGeometry x="6211" y="290" width="130" height="130" as="geometry"/>
                </mxCell>
                <mxCell id="138" value="Flowers" style="ellipse;whiteSpace=wrap;html=1;" vertex="1" parent="1">
                    <mxGeometry x="6030" y="460" width="80" height="80" as="geometry"/>
                </mxCell>
                <mxCell id="139" value="Berries" style="ellipse;whiteSpace=wrap;html=1;" vertex="1" parent="1">
                    <mxGeometry x="6360" y="460" width="80" height="80" as="geometry"/>
                </mxCell>
                <mxCell id="140" value="Vegetables" style="ellipse;whiteSpace=wrap;html=1;" vertex="1" parent="1">
                    <mxGeometry x="5930" y="460" width="80" height="80" as="geometry"/>
                </mxCell>
                <mxCell id="141" value="Herbs" style="ellipse;whiteSpace=wrap;html=1;" vertex="1" parent="1">
                    <mxGeometry x="6140" y="460" width="80" height="80" as="geometry"/>
                </mxCell>
                <mxCell id="142" value="Lawn" style="ellipse;whiteSpace=wrap;html=1;" vertex="1" parent="1">
                    <mxGeometry x="6580" y="460" width="80" height="80" as="geometry"/>
                </mxCell>
                <mxCell id="143" value="Oilseeds" style="ellipse;whiteSpace=wrap;html=1;" vertex="1" parent="1">
                    <mxGeometry x="6470" y="460" width="80" height="80" as="geometry"/>
                </mxCell>
                <mxCell id="146" value="Trees&amp;amp;&lt;br&gt;Shrump" style="ellipse;whiteSpace=wrap;html=1;" vertex="1" parent="1">
                    <mxGeometry x="6690" y="460" width="80" height="80" as="geometry"/>
                </mxCell>
                <mxCell id="158" style="edgeStyle=elbowEdgeStyle;html=1;exitX=1;exitY=0.5;exitDx=0;exitDy=0;entryX=0;entryY=0.5;entryDx=0;entryDy=0;fontSize=24;" edge="1" parent="1" source="147" target="137">
                    <mxGeometry relative="1" as="geometry"/>
                </mxCell>
                <mxCell id="147" value="&lt;span style=&quot;font-size: 24px;&quot;&gt;Gardening&lt;br&gt;&lt;/span&gt;" style="ellipse;whiteSpace=wrap;html=1;" vertex="1" parent="1">
                    <mxGeometry x="5101" y="290" width="130" height="130" as="geometry"/>
                </mxCell>
                <mxCell id="148" value="Fertilizers" style="ellipse;whiteSpace=wrap;html=1;" vertex="1" parent="1">
                    <mxGeometry x="5130" y="460" width="80" height="80" as="geometry"/>
                </mxCell>
                <mxCell id="150" value="Equipment" style="ellipse;whiteSpace=wrap;html=1;" vertex="1" parent="1">
                    <mxGeometry x="5030" y="460" width="80" height="80" as="geometry"/>
                </mxCell>
                <mxCell id="151" value="Substrates" style="ellipse;whiteSpace=wrap;html=1;" vertex="1" parent="1">
                    <mxGeometry x="5240" y="460" width="80" height="80" as="geometry"/>
                </mxCell>
                <mxCell id="159" value="&lt;span style=&quot;font-size: 24px;&quot;&gt;Household&lt;/span&gt;" style="ellipse;whiteSpace=wrap;html=1;" vertex="1" parent="1">
                    <mxGeometry x="7351" y="290" width="130" height="130" as="geometry"/>
                </mxCell>
                <mxCell id="169" value="Legume" style="ellipse;whiteSpace=wrap;html=1;" vertex="1" parent="1">
                    <mxGeometry x="6250" y="460" width="80" height="80" as="geometry"/>
                </mxCell>
            </root>
        </mxGraphModel>
    </diagram>
</mxfile>